<?xml version="1.0"?>
<svg xmlnsRdf="http://www.w3.org/1999/02/22-rdf-syntax-ns#" xmlns="http://www.w3.org/2000/svg" xmlnsCc="http://web.resource.org/cc/" xmlnsDc="http://purl.org/dc/elements/1.1/" xmlnsSvg="http://www.w3.org/2000/svg" id="svg2" viewBox="0 0 400 380" version="1.0">
  <path id="path1891" fill-rule="evenodd" d="m151.35 307.2h113c0-16.06-1.15-19.25-27.75-19.25 4.25-12.75 21.52-43.59 31.12-43.59 8.5 0 18.63 0.47 18.63 19.84 0 22 37.02 57.48 46 43 13.38-21.56-23-14.98-23-67 0-71.15 41.52-61.02 41.52-101 0-20-5.52-22.7-5.52-37 0-18.893 16.65-17.796 13.41-33.465-2.24-10.823-3.99-19.503-5.29-32.591-0.93-9.287-1.23-19.185-10.87-18.787-11.33 0.468-15.63 20.417-33.25 21.848-17.58 1.427-32.57-14.967-39.38-12.625-6.74 2.321-4.62 20.625-0.62 33.625 6.29 20.432 20 46.995-5 50.995s-68 8-99 49-29.86 89.12-42 104c-40.759 49.96-82.526 29.45-82.526 71 0 18.61 31.525 32 36.525 26s-42.485-23.87 10.646-45c45.395-18.04 49.445-21.72 63.355-9z"/>
  <metadata>
    <rdfRDF>
      <ccWork>
        <dcFormat>image/svg+xml</dcFormat>
        <dcType rdfResource="http://purl.org/dc/dcmitype/StillImage"/>
        <ccLicense rdfResource="http://creativecommons.org/licenses/publicdomain/"/>
        <dcPublisher>
          <ccAgent rdfAbout="http://openclipart.org/">
            <dcTitle>Openclipart</dcTitle>
          </ccAgent>
        </dcPublisher>
        <dcTitle>Cat silhouette</dcTitle>
        <dcDate>2006-11-03T05:40:34</dcDate>
        <dcDescription>Silhouette of a cat.&#xD;\n&#xD;\nFrom http://commons.wikimedia.org/wiki/ImageCat_silhouette.svg</dcDescription>
        <dcSource>http://openclipart.org/detail/1198/cat-silhouette-by-liftarn</dcSource>
        <dcCreator>
          <ccAgent>
            <dcTitle>liftarn</dcTitle>
          </ccAgent>
        </dcCreator>
        <dcSubject>
          <rdfBag>
            <rdfLi>animal</rdfLi>
            <rdfLi>cat</rdfLi>
            <rdfLi>clip art</rdfLi>
            <rdfLi>clipart</rdfLi>
            <rdfLi>externalsource</rdfLi>
            <rdfLi>image</rdfLi>
            <rdfLi>media</rdfLi>
            <rdfLi>png</rdfLi>
            <rdfLi>public domain</rdfLi>
            <rdfLi>silhouette</rdfLi>
            <rdfLi>svg</rdfLi>
            <rdfLi>wikimedia commons</rdfLi>
          </rdfBag>
        </dcSubject>
      </ccWork>
      <ccLicense rdfAbout="http://creativecommons.org/licenses/publicdomain/">
        <ccPermits rdfResource="http://creativecommons.org/ns#Reproduction"/>
        <ccPermits rdfResource="http://creativecommons.org/ns#Distribution"/>
        <ccPermits rdfResource="http://creativecommons.org/ns#DerivativeWorks"/>
      </ccLicense>
    </rdfRDF>
  </metadata>
</svg>
